<svg xmlns="http://www.w3.org/2000/svg" width="36" height="37" viewBox="0 0 36 37" fill="none">
  <g clip-path="url(#clip0_106_1742)">
    <path d="M9.56135 8.96881C7.54175 10.983 -1.28725 23.5758 6.34115 31.2024C13.9659 38.8308 26.5551 30 28.5783 27.9822C30.5961 25.968 27.9753 20.0712 22.7247 14.8206C17.4705 9.56641 11.5809 6.94381 9.56135 8.96881ZM26.2365 26.2308C25.6389 26.8212 21.0255 25.4082 16.5813 20.9604C12.1407 16.5162 10.7205 11.901 11.3181 11.307C11.9085 10.7094 16.5273 12.1296 20.9661 16.5738C25.4139 21.0144 26.8305 25.6332 26.2365 26.2308ZM27.7809 11.5176L31.2081 8.08681C31.5457 7.74929 31.7353 7.29153 31.7353 6.81421C31.7353 6.33689 31.5457 5.87912 31.2081 5.54161C30.8706 5.20409 30.4129 5.01448 29.9355 5.01448C29.4582 5.01448 29.0005 5.20409 28.6629 5.54161L25.2357 8.97241C24.8982 9.30992 24.7086 9.76769 24.7086 10.245C24.7086 10.4814 24.7552 10.7154 24.8456 10.9337C24.9361 11.1521 25.0686 11.3505 25.2357 11.5176C25.4029 11.6847 25.6013 11.8173 25.8196 11.9077C26.038 11.9982 26.272 12.0447 26.5083 12.0447C26.9857 12.0447 27.4434 11.8551 27.7809 11.5176ZM20.0229 7.59001C20.2295 7.7049 20.4567 7.77797 20.6916 7.80505C20.9264 7.83213 21.1643 7.81268 21.3916 7.74783C21.6189 7.68298 21.8312 7.57398 22.0164 7.42707C22.2016 7.28016 22.3561 7.09821 22.4709 6.89161L24.4275 3.42481C24.6596 3.00757 24.7163 2.51525 24.5853 2.05616C24.4544 1.59708 24.1464 1.20882 23.7291 0.976807C23.3119 0.744796 22.8196 0.688035 22.3605 0.81901C21.9014 0.949985 21.5132 1.25797 21.2811 1.67521L19.3245 5.14201C19.2097 5.3486 19.1366 5.5758 19.1095 5.81064C19.0824 6.04547 19.1019 6.28334 19.1667 6.51066C19.2316 6.73798 19.3406 6.9503 19.4875 7.13549C19.6344 7.32069 19.8163 7.47513 20.0229 7.59001ZM35.7693 13.0188C35.6545 12.8122 35.5 12.6303 35.3148 12.4833C35.1296 12.3364 34.9173 12.2274 34.69 12.1626C34.4627 12.0977 34.2248 12.0783 33.99 12.1054C33.7551 12.1324 33.5279 12.2055 33.3213 12.3204L29.8293 14.2302C29.6228 14.3451 29.4408 14.4995 29.2939 14.6847C29.147 14.8699 29.038 15.0822 28.9731 15.3096C28.9083 15.5369 28.8889 15.7747 28.9159 16.0096C28.943 16.2444 29.0161 16.4716 29.1309 16.6782C29.2458 16.8848 29.4003 17.0667 29.5855 17.2137C29.7707 17.3606 29.983 17.4696 30.2103 17.5344C30.4376 17.5993 30.6755 17.6187 30.9103 17.5916C31.1452 17.5646 31.3724 17.4915 31.5789 17.3766L35.0709 15.4668C35.2775 15.3519 35.4595 15.1975 35.6064 15.0123C35.7533 14.8271 35.8623 14.6148 35.9272 14.3875C35.992 14.1601 36.0115 13.9223 35.9844 13.6874C35.9573 13.4526 35.8842 13.2254 35.7693 13.0188Z" fill="#4D5495"/>
  </g>
  <defs>
    <clipPath id="clip0_106_1742">
      <rect width="36" height="36" fill="white" transform="translate(0 0.75)"/>
    </clipPath>
  </defs>
</svg>