<svg width="14" height="15" viewBox="0 0 14 15" fill="none" xmlns="http://www.w3.org/2000/svg">
<path d="M12.7101 1.36334L13.0543 1.7075C13.5285 2.18234 13.4568 3.02409 12.8927 3.58759L5.79526 10.685L3.49576 11.5262C3.20701 11.6323 2.92585 11.4947 2.86868 11.2199C2.84942 11.1203 2.85852 11.0172 2.89493 10.9224L3.75243 8.60309L10.83 1.52492C11.3941 0.961421 12.2358 0.888505 12.7101 1.36334ZM5.48551 2.06917C5.56212 2.06917 5.63797 2.08426 5.70875 2.11357C5.77952 2.14289 5.84383 2.18586 5.89799 2.24003C5.95216 2.29419 5.99513 2.3585 6.02444 2.42927C6.05376 2.50005 6.06885 2.5759 6.06885 2.6525C6.06885 2.72911 6.05376 2.80496 6.02444 2.87574C5.99513 2.94651 5.95216 3.01082 5.89799 3.06498C5.84383 3.11915 5.77952 3.16212 5.70875 3.19143C5.63797 3.22075 5.56212 3.23584 5.48551 3.23584H3.15218C2.84276 3.23584 2.54602 3.35875 2.32722 3.57755C2.10843 3.79634 1.98551 4.09309 1.98551 4.4025V11.4025C1.98551 11.7119 2.10843 12.0087 2.32722 12.2275C2.54602 12.4463 2.84276 12.5692 3.15218 12.5692H10.1522C10.4616 12.5692 10.7583 12.4463 10.9771 12.2275C11.1959 12.0087 11.3188 11.7119 11.3188 11.4025V9.06917C11.3188 8.91446 11.3803 8.76609 11.4897 8.65669C11.5991 8.5473 11.7475 8.48584 11.9022 8.48584C12.0569 8.48584 12.2053 8.5473 12.3147 8.65669C12.4241 8.76609 12.4855 8.91446 12.4855 9.06917V11.4025C12.4855 12.0213 12.2397 12.6148 11.8021 13.0524C11.3645 13.49 10.771 13.7358 10.1522 13.7358H3.15218C2.53334 13.7358 1.93985 13.49 1.50227 13.0524C1.06468 12.6148 0.818848 12.0213 0.818848 11.4025V4.4025C0.818848 3.78367 1.06468 3.19017 1.50227 2.75259C1.93985 2.315 2.53334 2.06917 3.15218 2.06917H5.48551Z" fill="#121212"/>
</svg>
